<svg xmlns="http://www.w3.org/2000/svg" viewBox="0 0 48 48" fill="none" aria-hidden="true">
  <rect x="2" y="2" width="44" height="44" rx="4" fill="#fff" stroke="#0a0a0a" stroke-width="3"/>
  <path d="M10 28c0-6.5 5-11.5 11.5-11.5h5C33 16.5 38 21.5 38 28v2.5c0 2.2-1.8 4-4 4H14c-2.2 0-4-1.8-4-4V28z" fill="#1a9a83" stroke="#0a0a0a" stroke-width="2.5" stroke-linejoin="round"/>
  <circle cx="18" cy="27" r="1.8" fill="#fff"/>
  <circle cx="24" cy="27" r="1.8" fill="#fff"/>
  <circle cx="30" cy="27" r="1.8" fill="#fff"/>
  <path d="M34 12l2 4 4 1-4 1-2 4-2-4-4-1 4-1 2-4z" fill="#fcd34d" stroke="#0a0a0a" stroke-width="1.8" stroke-linejoin="round"/>
</svg>
