<svg xmlns="http://www.w3.org/2000/svg" viewBox="0 0 48 48" fill="none" aria-hidden="true">
  <rect x="2" y="2" width="44" height="44" rx="4" fill="#fff" stroke="#0a0a0a" stroke-width="3"/>
  <path d="M24 36c-2-8 1-13 7-17-4 2-8 1-11-2 5-1 9-5 10-11 4 5 8 8 14 8-3 5-7 9-13 11 3-3 5-7 4-11 4 4 7 10 6 17-5-3-8-3-13 0 2-4 4-7 9-8z" fill="#e11d2e" stroke="#0a0a0a" stroke-width="2" stroke-linejoin="round"/>
  <circle cx="24" cy="14" r="3.5" fill="#fcd34d" stroke="#0a0a0a" stroke-width="2"/>
  <path d="M12 38h24" stroke="#7c3aed" stroke-width="2.5" stroke-linecap="round"/>
</svg>
