<svg xmlns="http://www.w3.org/2000/svg" viewBox="0 0 48 48" fill="none" aria-hidden="true">
  <rect x="2" y="2" width="44" height="44" rx="4" fill="#fff" stroke="#0a0a0a" stroke-width="3"/>
  <path d="M24 11c-6.2 0-11.2 5-11.2 11.2 0 4.9 3.2 9.1 7.6 10.6.6.1.8-.3.8-.5 0-.3 0-1.1 0-2.2-3.1.7-3.8-1.5-3.8-1.5-.3-.8-.8-1-.8-1-.7-.5.1-.5.1-.5.8.1 1.2 1 1.2 1 1 .1.7 1.7 1.7 1.7 1 .1.7-.4.9-.8 1.1-2.5-.3-5.1-1.3-5.1-5.5 0-1.2.4-2.2 1.2-3-.1-.3-.5-1.4.1-2.9 0 0 1-.3 3.2 1.2.9-.3 1.9-.4 2.9-.4 1 0 2 .1 2.9.4 2.2-1.5 3.2-1.2 3.2-1.2.6 1.5.2 2.6.1 2.9.8.8 1.2 1.8 1.2 3 0 4.3-2.6 5.2-5.1 5.5.4.4.8 1.1.8 2.2 0 1.5 0 2.7 0 3.1 0 .3.2.7.8.6 4.4-1.5 7.6-5.7 7.6-10.6C35.2 16 30.2 11 24 11z" fill="#0a0a0a"/>
</svg>
